<?xml version="1.0" standalone="no"?>
<!DOCTYPE svg PUBLIC "-//W3C//DTD SVG 20010904//EN"
 "http://www.w3.org/TR/2001/REC-SVG-20010904/DTD/svg10.dtd">
<svg version="1.0" xmlns="http://www.w3.org/2000/svg"
 width="320.000000pt" height="320.000000pt" viewBox="0 0 320.000000 320.000000"
 preserveAspectRatio="xMidYMid meet">

<g transform="translate(0.000000,320.000000) scale(0.100000,-0.100000)"
fill="#000000" stroke="none">
<path d="M495 2980 c-119 -38 -230 -141 -276 -257 l-24 -58 -3 -1019 c-2 -643
1 -1038 7 -1072 23 -121 113 -244 219 -298 114 -58 80 -56 1158 -56 628 0
1011 4 1045 10 117 22 247 118 299 220 51 99 50 76 50 1160 0 1100 1 1064 -55
1169 -33 61 -114 140 -175 171 -101 52 -61 50 -1160 49 -981 0 -1028 -1 -1085
-19z m1318 -504 c254 -75 450 -239 562 -471 75 -155 90 -219 90 -395 0 -159
-13 -226 -68 -355 -104 -245 -314 -429 -582 -511 -81 -25 -105 -27 -240 -27
-122 0 -165 4 -228 21 -320 88 -568 338 -646 653 -43 177 -37 332 21 506 102
310 388 553 709 603 99 16 284 4 382 -24z"/>
<path d="M1416 2380 c-422 -89 -697 -507 -610 -927 53 -259 244 -488 482 -577
118 -44 153 -50 287 -50 105 0 145 4 209 22 301 86 518 325 571 627 18 102 19
156 5 245 -54 342 -312 606 -649 665 -109 19 -185 18 -295 -5z m728 -400 c62
-64 62 -65 28 -140 -9 -20 -145 -165 -315 -337 -164 -165 -305 -311 -313 -322
-24 -33 -71 -53 -107 -45 -30 6 -91 64 -359 341 -80 82 -88 94 -88 129 0 33 8
46 57 96 45 45 64 58 88 58 42 0 64 -18 200 -158 l120 -123 255 262 c325 334
337 341 434 239z"/>
</g>
</svg>
